#!OML:ASF H:\Dans Jumps\Project 1\Capture day 1\Session 1\subject.ASF
:FULLY-SPECIFIED
:DEGREES
192
root 0.530626 17.523 -13.8574 5.84593 -0.899189 -1.98053
lowerback -1.63608 -0.437581 0.388946
upperback 3.04366 -0.66398 1.79748
thorax 4.06844 -0.349465 1.60085
lowerneck -13.9057 0.270344 -2.23997
upperneck 28.0979 0.825898 0.502077
head 11.4206 0.193859 0.682476
rclavicle -2.6339e-015 7.35503e-015
rhumerus -36.2191 -20.3033 -71.601
rradius 24.3865
rwrist 31.5506
rhand -19.1952 -26.2163
rfingers 7.12502
rthumb 7.11674 -56.0766
lclavicle -2.6339e-015 7.35503e-015
lhumerus -31.7766 3.31295 84.2898
lradius 17.9035
lwrist 6.14333
lhand -26.9667 -5.66394
lfingers 7.12502
lthumb -0.387918 24.3154
rfemur -12.7496 -2.31747 20.2968
rtibia 21.4656
rfoot -13.8288 -2.74435
rtoes 9.44101
lfemur -12.155 5.73512 -17.5248
ltibia 20.6054
lfoot -11.9328 4.4165
ltoes -0.743814
193
root 0.530672 17.52 -13.8619 5.87008 -0.873518 -1.98253
lowerback -1.56876 -0.447131 0.390363
upperback 3.09166 -0.677006 1.80705
thorax 4.08057 -0.356259 1.6097
lowerneck -13.927 0.272402 -2.24504
upperneck 27.9856 0.837671 0.476315
head 11.3817 0.196533 0.674884
rclavicle -1.33186e-014 -1.98785e-016
rhumerus -36.5816 -20.3941 -71.3347
rradius 24.3981
rwrist 31.5443
rhand -19.2034 -26.214
rfingers 7.12502
rthumb 7.1088 -56.0746
lclavicle -1.33186e-014 -1.98785e-016
lhumerus -32.0649 3.37806 84.2082
lradius 17.8738
lwrist 6.16928
lhand -27.3201 -6.22187
lfingers 7.12502
lthumb -0.729295 23.7566
rfemur -12.8696 -2.28091 20.3018
rtibia 21.6197
rfoot -13.8745 -2.81331
rtoes 9.38878
lfemur -12.2834 5.72464 -17.5268
ltibia 20.7576
lfoot -11.9848 4.41751
ltoes -0.77493
194
root 0.5306 17.5168 -13.8668 5.89532 -0.854948 -1.98213
lowerback -1.49835 -0.453829 0.38675
upperback 3.1427 -0.68603 1.81591
thorax 4.09407 -0.361224 1.62086
lowerneck -13.9419 0.272709 -2.25032
upperneck 27.8653 0.846346 0.451733
head 11.3387 0.198041 0.667277
rclavicle 0 -1.07344e-014
rhumerus -36.9442 -20.4855 -71.0696
rradius 24.4103
rwrist 31.5429
rhand -19.2273 -26.183
rfingers 7.12502
rthumb 7.0857 -56.0444
lclavicle 0 -1.07344e-014
lhumerus -32.3523 3.43355 84.1319
lradius 17.8405
lwrist 6.21361
lhand -27.488 -6.56091
lfingers 7.12502
lthumb -0.891402 23.417
rfemur -12.9985 -2.23503 20.3049
rtibia 21.7819
rfoot -13.9169 -2.88825
rtoes 9.3196
lfemur -12.4165 5.71516 -17.5311
ltibia 20.9151
lfoot -12.0361 4.4228
ltoes -0.797445
195
root 0.530483 17.5134 -13.8723 5.92236 -0.838622 -1.98007
lowerback -1.42576 -0.459061 0.381351
upperback 3.19626 -0.692998 1.82329
thorax 4.10891 -0.365213 1.63164
lowerneck -13.9554 0.271686 -2.25521
upperneck 27.7445 0.852672 0.428011
head 11.2952 0.198664 0.659611
rclavicle 5.31749e-015 -1.39149e-015
rhumerus -37.3081 -20.5681 -70.8113
rradius 24.4302
rwrist 31.524
rhand -19.2467 -26.152
rfingers 7.12502
rthumb 7.06702 -56.014
lclavicle 5.31749e-015 -1.39149e-015
lhumerus -32.6418 3.48801 84.0547
lradius 17.8177
lwrist 6.27782
lhand -27.3845 -6.4518
lfingers 7.12502
lthumb -0.791476 23.5265
rfemur -13.1353 -2.18633 20.3065
rtibia 21.9507
rfoot -13.9574 -2.96425
rtoes 9.24617
lfemur -12.5553 5.70677 -17.5376
ltibia 21.0759
lfoot -12.0849 4.42908
ltoes -0.826246
196
root 0.530363 17.51 -13.8782 5.94858 -0.823809 -1.97394
lowerback -1.35213 -0.463384 0.372696
upperback 3.25586 -0.698675 1.82882
thorax 4.12942 -0.36867 1.64241
lowerneck -13.9721 0.269074 -2.26083
upperneck 27.6208 0.857267 0.403185
head 11.2515 0.198336 0.651452
rclavicle -8.59744e-015 1.39149e-014
rhumerus -37.6657 -20.6393 -70.5637
rradius 24.4598
rwrist 31.4805
rhand -19.2471 -26.1135
rfingers 7.12502
rthumb 7.06666 -55.9756
lclavicle -8.59744e-015 1.39149e-014
lhumerus -32.9256 3.53501 83.9818
lradius 17.7983
lwrist 6.35162
lhand -27.1479 -6.17426
lfingers 7.12502
lthumb -0.562964 23.8047
rfemur -13.2765 -2.14066 20.3038
rtibia 22.1252
rfoot -13.9974 -3.038
rtoes 9.1627
lfemur -12.6947 5.70057 -17.5491
ltibia 21.2373
lfoot -12.1327 4.43476
ltoes -0.859604
197
root 0.530287 17.5066 -13.8846 5.9752 -0.80795 -1.96239
lowerback -1.27642 -0.468561 0.35861
upperback 3.31965 -0.705347 1.83379
thorax 4.15322 -0.372819 1.65563
lowerneck -13.991 0.266963 -2.2682
upperneck 27.4948 0.863813 0.375711
head 11.2074 0.198421 0.642914
rclavicle -3.27995e-015 -4.96962e-015
rhumerus -38.0132 -20.7106 -70.3201
rradius 24.4965
rwrist 31.4093
rhand -19.2067 -26.108
rfingers 7.12502
rthumb 7.1056 -55.9687
lclavicle -3.27995e-015 -4.96962e-015
lhumerus -33.2053 3.58575 83.9109
lradius 17.785
lwrist 6.42023
lhand -26.8257 -5.73547
lfingers 7.12502
lthumb -0.251739 24.2441
rfemur -13.4224 -2.10384 20.2952
rtibia 22.3036
rfoot -14.0385 -3.10612
rtoes 9.07261
lfemur -12.8366 5.69785 -17.5676
ltibia 21.3986
lfoot -12.1789 4.43805
ltoes -0.905049
198
root 0.530279 17.5031 -13.8915 6.00111 -0.787495 -1.94504
lowerback -1.19529 -0.475326 0.340366
upperback 3.3877 -0.71396 1.83732
thorax 4.17847 -0.378077 1.66965
lowerneck -14.0154 0.264545 -2.27545
upperneck 27.3653 0.870633 0.34592
head 11.1632 0.198411 0.633578
rclavicle 1.98785e-015 6.55989e-015
rhumerus -38.3498 -20.7839 -70.082
rradius 24.5382
rwrist 31.3249
rhand -19.1325 -26.1224
rfingers 7.12502
rthumb 7.17726 -55.9807
lclavicle 1.98785e-015 6.55989e-015
lhumerus -33.4787 3.6362 83.8424
lradius 17.7755
lwrist 6.47587
lhand -26.608 -5.41192
lfingers 7.12502
lthumb -0.0414651 24.5678
rfemur -13.5699 -2.079 20.28
rtibia 22.4842
rfoot -14.0829 -3.167
rtoes 8.98696
lfemur -12.9801 5.69794 -17.5933
ltibia 21.5599
lfoot -12.2248 4.43571
ltoes -0.962535
